<svg width="32" height="32" viewBox="0 0 32 32" fill="none" xmlns="http://www.w3.org/2000/svg">
<path d="M29.3327 15.6559C29.3327 22.8302 23.4722 28.6459 16.2417 28.6459C13.9463 28.6459 11.7899 28.0592 9.91372 27.0296L2.66602 29.3327L5.02898 22.3632C3.83698 20.4059 3.15046 18.1102 3.15046 15.6559C3.15046 8.48172 9.0115 2.66602 16.2417 2.66602C23.4728 2.66602 29.3327 8.48172 29.3327 15.6559ZM16.2417 4.73476C10.1724 4.73476 5.2355 9.63402 5.2355 15.6559C5.2355 18.0456 6.01446 20.2586 7.33209 22.0589L5.95698 26.1149L10.1866 24.7706C11.9244 25.9116 14.0062 26.5771 16.242 26.5771C22.3105 26.5771 27.2482 21.6785 27.2482 15.6565C27.2482 9.63461 22.3108 4.73476 16.2417 4.73476ZM22.8524 18.6476C22.7715 18.5152 22.5579 18.4352 22.2373 18.2761C21.9161 18.117 20.338 17.3463 20.0447 17.2405C19.7505 17.1345 19.5359 17.0811 19.3223 17.3996C19.1087 17.7185 18.4936 18.4352 18.306 18.6476C18.1188 18.8607 17.9318 18.8873 17.6106 18.7279C17.29 18.5688 16.2562 18.2322 15.0305 17.1478C14.0767 16.3039 13.4325 15.2622 13.2453 14.9431C13.0583 14.6245 13.2257 14.4524 13.386 14.2939C13.5306 14.1511 13.7072 13.922 13.8675 13.7362C14.0284 13.5502 14.0817 13.4177 14.1881 13.205C14.2956 12.9925 14.242 12.8068 14.1614 12.6471C14.0814 12.4879 13.4391 10.9211 13.1718 10.2835C12.9045 9.64646 12.6376 9.75253 12.45 9.75253C12.2631 9.75253 12.0488 9.72587 11.8349 9.72587C11.621 9.72587 11.2731 9.80557 10.9789 10.1241C10.685 10.4429 9.85624 11.2133 9.85624 12.7798C9.85624 14.3466 11.0056 15.8604 11.1665 16.0725C11.3268 16.2847 13.3857 19.6044 16.6479 20.8793C19.9105 22.1537 19.9105 21.7285 20.4989 21.6752C21.0868 21.6222 22.397 20.9051 22.6654 20.162C22.9321 19.4177 22.9321 18.7804 22.8524 18.6476Z" fill="#787A80"/>
</svg>
