<svg width="32" height="24" viewBox="0 0 32 24" fill="none" xmlns="http://www.w3.org/2000/svg">
<path fill-rule="evenodd" clip-rule="evenodd" d="M28.5204 1.48608C29.891 1.85522 30.9718 2.93578 31.3407 4.30662C32.0262 6.81052 31.9999 12.0297 31.9999 12.0297C31.9999 12.0297 31.9999 17.2223 31.3409 19.7265C30.9718 21.0971 29.8912 22.1779 28.5204 22.5468C26.0162 23.2059 15.9999 23.2059 15.9999 23.2059C15.9999 23.2059 6.00974 23.2059 3.47948 22.5206C2.10863 22.1515 1.02807 21.0707 0.658933 19.7001C0 17.2223 0 12.0034 0 12.0034C0 12.0034 0 6.81052 0.658933 4.30662C1.02783 2.93602 2.135 1.82885 3.47923 1.45996C5.98337 0.800781 15.9997 0.800781 15.9997 0.800781C15.9997 0.800781 26.0162 0.800781 28.5204 1.48608ZM21.1397 12.0033L12.8104 16.8007V7.20596L21.1397 12.0033Z" fill="#FF5A30"/>
</svg>
